<svg xmlns="http://www.w3.org/2000/svg" width="169" height="169" viewBox="0 0 169 169">
  <defs>
    <style>
      .cls-1 {
        fill: #ccc;
        fill-rule: evenodd;
      }
    </style>
  </defs>
  <path id="apps_icon.svg" class="cls-1" d="M1042.99,203v84.5h4.37V207.372h160.26V367.626h-79.66V372h84.03V203h-169Zm63.85,36.856q-11.5-.016-23.02,0c-2.52,0-3.84,1.328-3.84,3.866q0,11.559,0,23.118a13.544,13.544,0,0,0,13.7,13.733c7.75,0.022,15.49.008,23.23,0,2.45,0,3.79-1.352,3.79-3.817,0.01-3.959,0-7.917,0-11.877,0-3.711.01-7.422,0-11.134A13.551,13.551,0,0,0,1106.84,239.859Zm10.07,54.3c-7.74,0-15.48-.016-23.22,0a13.543,13.543,0,0,0-13.71,13.727c-0.01,3.747,0,7.494,0,11.24,0,3.994-.01,7.989,0,11.983a3.425,3.425,0,0,0,3.74,3.767c7.77,0.006,15.55.022,23.33,0A13.551,13.551,0,0,0,1120.7,321.2q0.03-11.611,0-23.222C1120.7,295.518,1119.35,294.158,1116.91,294.156Zm44.25,0q-4.755-.006-9.51-0.006-6.75,0-13.5,0c-2.54,0-3.87,1.318-3.87,3.844q0,11.558,0,23.117a13.55,13.55,0,0,0,13.79,13.759c1.4,0,2.81.006,4.22,0.006l6.96,0h11.83q3.915,0,3.92-3.9,0-11.5,0-23.011A13.547,13.547,0,0,0,1161.16,294.157Zm5.11,32.336h-7.02l-3.49,0-3.47,0q-2.1,0-4.2-.006a5.183,5.183,0,0,1-5.42-5.389q-0.015-9.281-.01-18.561l8.99,0q4.755,0,9.49.007a5.169,5.169,0,0,1,5.47,5.436q0.015,9.256.01,18.513h-0.35Zm4.94-86.635c-7.75,0-15.49-.017-23.23,0a13.534,13.534,0,0,0-13.7,13.728c-0.01,3.747,0,7.494,0,11.24,0,4-.01,7.989,0,11.983a3.425,3.425,0,0,0,3.74,3.766c7.77,0.006,15.55.022,23.33,0A13.552,13.552,0,0,0,1175,266.9c0.02-7.741,0-15.481,0-23.222C1175,241.22,1173.65,239.86,1171.21,239.858Z" transform="translate(-1043 -203)"/>
</svg>
