<svg xmlns="http://www.w3.org/2000/svg" width="169" height="169" viewBox="0 0 169 169">
  <defs>
    <style>
      .cls-1 {
        fill: #67bcd5;
        fill-rule: evenodd;
      }
    </style>
  </defs>
  <path id="project_select_icon.svg" class="cls-1" d="M135,203v84.5h4.369V207.366H299.632V367.63H219.967V372H304V203H135Zm39.517,53.844a15.325,15.325,0,0,1,3.572-4.934,16.633,16.633,0,0,1,5.249-3.287,16.906,16.906,0,0,1,13.583.508c2.607,1.249,6.988,3.649,7.175,8.971v39.267a21.065,21.065,0,0,0-14.536-5.528c-6.883,0-12.929,3.027-16.379,7.591v-36.3A15.213,15.213,0,0,1,174.516,256.841Zm91.491,69.008a1.709,1.709,0,0,1-1.71,1.709H187.714a14.435,14.435,0,0,1-10.277-4.257,14.65,14.65,0,0,1-4.443-10.291l0.186-3.519c1.047-5.849,6.682-10.895,14.05-12.534a0.947,0.947,0,0,1,1.156.922v24.8a1,1,0,0,0,1.1.991c8.121-.871,14.231-3.3,17.164-8.559h18.2v-4.036h-3.112v-7.618h-4.12v7.618h-9.434c1.066-1.111.74-14.242,0.888-29.827V270.587h8.611v24.427h4.091v-4.521h4.363v-4.048h-4.363V270.587H254.42v15.9h-21.2V290.5h4.313v7.724h4.142V290.5H254.42v20.578H241.7v-5.966h-4.141v5.966h-3.133v4.036h24V266.451H209.1v-7.623a1.782,1.782,0,0,1,1.781-1.781h53.345a1.781,1.781,0,0,1,1.781,1.781v67.021Z" transform="translate(-135 -203)"/>
</svg>
