<svg xmlns="http://www.w3.org/2000/svg" width="169" height="169" viewBox="0 0 169 169">
  <defs>
    <style>
      .cls-1 {
        fill: #ccc;
        fill-rule: evenodd;
      }
    </style>
  </defs>
  <path id="report_select_icon.svg" class="cls-1" d="M438,203V287.5h4.369V207.364H602.63V367.64H522.964v4.37H607V203H438ZM546.425,305.229c0-.383-0.056-0.766-0.085-1.128h-7.871v16.684h7.945C546.442,315.6,546.429,310.414,546.425,305.229Zm-21.4-15.508h-7.984v27.994q0,1.535,0,3.07h7.985V289.721Zm10.7,8.433c0-.394-0.036-0.788-0.058-1.224h-7.809v23.855h7.873Q535.715,309.469,535.724,298.154Zm-29.312-19.528q-0.007,21.079,0,42.159h7.84V278.234h-7.746A2.218,2.218,0,0,0,506.412,278.626Zm50.539-38.656H492.224c-21.883,1.194-17.831,40.785-19.578,61.207h15v33.858h76.805V266.429C575.113,265.362,577.1,239.97,556.951,239.97Zm0.994,21.823H511.651c0.013,3.366-1.718,5.345-4.307,6.642h50.6v60.093h-63.7V253.705c4.984-.491,7.093,10.347,3.524,13.645,8.268,0.859,12.981-10.647,4.565-20.693h54.8C568.517,247.56,567.749,261.883,557.945,261.793Z" transform="translate(-438 -203)"/>
</svg>
