<svg xmlns="http://www.w3.org/2000/svg" width="169" height="169" viewBox="0 0 169 169">
  <defs>
    <style>
      .cls-1 {
        fill: #ccc;
        fill-rule: evenodd;
      }
    </style>
  </defs>
  <path id="user_select_icon.svg" class="cls-1" d="M740,203v84.5h4.369V207.364H904.632V367.628H824.966V372H909V203H740Zm100.436,84.4a22.854,22.854,0,1,0-22.854-22.854A22.854,22.854,0,0,0,840.435,287.391Zm0-37.321a14.423,14.423,0,0,1,3.22.374v28.187A14.463,14.463,0,1,1,840.435,250.07Zm8.806,41.1H831.629a32.6,32.6,0,0,0-32.6,32.6v9.54h82.82v-9.54A32.6,32.6,0,0,0,849.241,291.165Zm-5.586,32.08H809.1a22.567,22.567,0,0,1,22.533-22.016h12.027v22.016ZM792.735,298.5a25.579,25.579,0,0,0-25.58,25.58v9.225h23.483v-9.54a40.775,40.775,0,0,1,8.748-25.265h-6.651Zm6.447-6.926A12.382,12.382,0,1,0,786.8,279.2,12.382,12.382,0,0,0,799.182,291.578Z" transform="translate(-740 -203)"/>
</svg>
